<svg id="HODL2" xmlns="http://www.w3.org/2000/svg" xmlns:xlink="http://www.w3.org/1999/xlink" width="32" height="32" viewBox="0 0 32 32">
  <defs>
    <linearGradient id="linear-gradient" x1="0.5" x2="0.5" y2="1" gradientUnits="objectBoundingBox">
      <stop offset="0" stop-color="#3bbbc0"/>
      <stop offset="1" stop-color="#3c82b6"/>
    </linearGradient>
    <linearGradient id="linear-gradient-2" x1="0.17" y1="0.141" x2="0.767" y2="0.982" gradientUnits="objectBoundingBox">
      <stop offset="0" stop-color="#f7f7f7"/>
      <stop offset="1" stop-color="#ececec"/>
    </linearGradient>
    <clipPath id="clip-path">
      <path id="Path_47421" data-name="Path 47421" d="M-3545.309,3913.552h-13.2l-12.716-8.514v-7.3h25.915Z" transform="translate(3571.224 -3897.738)" fill="none" stroke="#707070" stroke-width="1"/>
    </clipPath>
    <linearGradient id="linear-gradient-4" x1="0.357" y1="0.018" x2="0.5" y2="1" gradientUnits="objectBoundingBox">
      <stop offset="0" stop-color="#3bb9bf"/>
      <stop offset="1" stop-color="#3b82b6"/>
    </linearGradient>
    <clipPath id="clip-path-2">
      <path id="Path_47421-2" data-name="Path 47421" d="M25.431,15.073h-13.2L0,6.257V.017L25.431,0Z" transform="translate(0 0)" fill="none" stroke="#707070" stroke-width="1"/>
    </clipPath>
    <linearGradient id="linear-gradient-5" x1="0.603" y1="0.988" x2="0.404" y2="0.01" xlink:href="#linear-gradient-4"/>
    <clipPath id="clip-path-3">
      <circle id="Ellipse_4139" data-name="Ellipse 4139" cx="11.462" cy="11.462" r="11.462" fill="url(#linear-gradient)"/>
    </clipPath>
  </defs>
  <g id="Group_19536" data-name="Group 19536">
    <circle id="Ellipse_2605" data-name="Ellipse 2605" cx="16" cy="16" r="16" fill="url(#linear-gradient-2)"/>
  </g>
  <g id="Group_22285" data-name="Group 22285" transform="translate(3782.127 333.345)">
    <g id="Group_21951" data-name="Group 21951" transform="translate(-3780.214 -331.186)">
      <circle id="Ellipse_4138" data-name="Ellipse 4138" cx="11.462" cy="11.462" r="11.462" transform="translate(2.658 2.463)" fill="url(#linear-gradient)"/>
      <g id="Group_21950" data-name="Group 21950" transform="translate(0 0)">
        <g id="Group_21946" data-name="Group 21946" transform="translate(0.692)">
          <g id="Mask_Group_575" data-name="Mask Group 575" transform="translate(1.169)" clip-path="url(#clip-path)">
            <path id="Exclusion_275" data-name="Exclusion 275" d="M13.712,27.424a13.814,13.814,0,0,1-2.763-.279,13.635,13.635,0,0,1-4.9-2.063,13.752,13.752,0,0,1-4.968-6.033,13.642,13.642,0,0,1-.8-2.574,13.846,13.846,0,0,1,0-5.527,13.637,13.637,0,0,1,2.063-4.9A13.752,13.752,0,0,1,8.375,1.078a13.643,13.643,0,0,1,2.574-.8,13.845,13.845,0,0,1,5.527,0,13.637,13.637,0,0,1,4.9,2.063,13.752,13.752,0,0,1,4.968,6.033,13.642,13.642,0,0,1,.8,2.574,13.846,13.846,0,0,1,0,5.527,13.637,13.637,0,0,1-2.063,4.9,13.752,13.752,0,0,1-6.033,4.968,13.643,13.643,0,0,1-2.574.8A13.814,13.814,0,0,1,13.712,27.424Zm0-26.631A12.919,12.919,0,1,0,26.631,13.712,12.933,12.933,0,0,0,13.712.793Z" transform="translate(-1.509 0.03)" fill="url(#linear-gradient-4)"/>
          </g>
          <path id="Exclusion_276" data-name="Exclusion 276" d="M1.3,2.606A1.3,1.3,0,0,1,.382.382,1.3,1.3,0,0,1,2.225,2.225,1.3,1.3,0,0,1,1.3,2.606ZM1.3.68a.623.623,0,1,0,.623.623A.624.624,0,0,0,1.3.68Z" transform="translate(0 6.942)" fill="#3bafbd"/>
          <circle id="Ellipse_4135" data-name="Ellipse 4135" cx="0.907" cy="0.907" r="0.907" transform="translate(25.611 14.875)" fill="#3b98ba"/>
        </g>
        <g id="Group_21947" data-name="Group 21947" transform="translate(27.312 27.68) rotate(180)">
          <g id="Mask_Group_575-2" data-name="Mask Group 575" transform="translate(1.415 0)" clip-path="url(#clip-path-2)">
            <path id="Exclusion_275-2" data-name="Exclusion 275" d="M13.712,27.424a13.814,13.814,0,0,1-2.763-.279,13.635,13.635,0,0,1-4.9-2.063,13.752,13.752,0,0,1-4.968-6.033,13.642,13.642,0,0,1-.8-2.574,13.846,13.846,0,0,1,0-5.527,13.637,13.637,0,0,1,2.063-4.9A13.752,13.752,0,0,1,8.375,1.078a13.643,13.643,0,0,1,2.574-.8,13.845,13.845,0,0,1,5.527,0,13.637,13.637,0,0,1,4.9,2.063,13.752,13.752,0,0,1,4.968,6.033,13.642,13.642,0,0,1,.8,2.574,13.846,13.846,0,0,1,0,5.527,13.637,13.637,0,0,1-2.063,4.9,13.752,13.752,0,0,1-6.033,4.968,13.643,13.643,0,0,1-2.574.8A13.814,13.814,0,0,1,13.712,27.424Zm0-26.631A12.919,12.919,0,1,0,26.631,13.712,12.933,12.933,0,0,0,13.712.793Z" transform="translate(-1.993 0.03)" fill="url(#linear-gradient-5)"/>
          </g>
          <path id="Exclusion_276-2" data-name="Exclusion 276" d="M1.3,2.606A1.3,1.3,0,0,1,.382.382,1.3,1.3,0,0,1,2.225,2.225,1.3,1.3,0,0,1,1.3,2.606ZM1.3.68a.623.623,0,1,0,.623.623A.624.624,0,0,0,1.3.68Z" transform="translate(0 6.036)" fill="#3b8ab8"/>
          <circle id="Ellipse_4135-2" data-name="Ellipse 4135" cx="1" cy="1" r="1" transform="translate(25.254 14.079)" fill="#3ba3bb"/>
        </g>
      </g>
      <g id="Mask_Group_576" data-name="Mask Group 576" transform="translate(2.658 2.463)" clip-path="url(#clip-path-3)">
        <path id="Union_159" data-name="Union 159" d="M3.651,22.114V12.625H1.311v-1.03H3.651v-.843H0V9.723H3.651V8.786H1.311V7.757H3.651V3.918H7.49V7.944h2.9V3.918H11.7V9.254H6.179V5.229H4.962V22.114Zm6.754-1.979a.337.337,0,0,1-.337-.337V18.532A1.569,1.569,0,0,1,11.28,16.9v-.011s.18-.039,1.6-.375,1.694-.378,1.788-.735-.162-.746-.766-.747H10.359V12.358H7.5v4.363H6.188V11.047H11.67v2.837h2.236c.721,0,1.96.169,1.96,1.729s-1.067,1.638-2.542,1.97c-1.4.316-1.97.3-2.02.694v.706h5.153a8.723,8.723,0,0,1-.672.666,5.428,5.428,0,0,1-.661.485Zm2.65-6.862V0h1.311V13.272Z" transform="translate(2.678 0.305)" fill="#fff"/>
      </g>
    </g>
  </g>
</svg>
